<?xml version="1.0" encoding="utf-8"?>
<!-- Generator: Adobe Illustrator 23.0.0, SVG Export Plug-In . SVG Version: 6.00 Build 0)  -->
<svg version="1.1" id="Capa_1" xmlns="http://www.w3.org/2000/svg" xmlns:xlink="http://www.w3.org/1999/xlink" x="0px" y="0px"
	 viewBox="0 0 512 512" style="enable-background:new 0 0 512 512;" xml:space="preserve">
<style type="text/css">
	.st0{fill:#4A7AFF;}
	.st1{fill:#0053BF;}
	.st2{fill:#FFFFFF;}
	.st3{fill:#DCE1EB;}
</style>
<path class="st0" d="M512,256c0,141.4-114.6,256-256,256S0,397.4,0,256S114.6,0,256,0S512,114.6,512,256z"/>
<path class="st1" d="M267.2,511.7C403.4,505.9,512,393.6,512,256c0-1,0-2,0-3L334.3,75.3l-190,198.6l105.6,105.6l-48.7,66.2
	L267.2,511.7z"/>
<path class="st2" d="M334.3,75.3v58c0,0-66.6-9.7-66.6,33.3v42.9h60.1l-7.5,65.5h-52.6v170.7h-66.6V275l-56.9-1.1v-64.4h55.8v-49.4
	c0,0-3.7-73.5,68.7-86.9C298.8,67.6,334.3,75.3,334.3,75.3z"/>
<path class="st3" d="M334.3,133.3v-58c0,0-35.4-7.8-65.5-2.1c-4.7,0.9-9.1,2-13.1,3.3v369.1h12.1V275h52.6l7.5-65.5h-60.1
	c0,0,0,0,0-42.9S334.3,133.3,334.3,133.3z"/>
</svg>
