<?xml version="1.0" encoding="utf-8"?>
<!-- Generator: Adobe Illustrator 23.0.0, SVG Export Plug-In . SVG Version: 6.00 Build 0)  -->
<svg version="1.1" id="Layer_1" xmlns="http://www.w3.org/2000/svg" xmlns:xlink="http://www.w3.org/1999/xlink" x="0px" y="0px"
	 viewBox="0 0 473.9 473.9" style="enable-background:new 0 0 473.9 473.9;" xml:space="preserve">
<style type="text/css">
	.st0{fill:url(#SVGID_1_);}
	.st1{fill:url(#SVGID_2_);}
	.st2{fill:url(#SVGID_3_);}
	.st3{fill:#FFFFFF;}
</style>
<linearGradient id="SVGID_1_" gradientUnits="userSpaceOnUse" x1="0" y1="239" x2="474" y2="239" gradientTransform="matrix(1 0 0 -1 0 476)">
	<stop  offset="0" style="stop-color:#FFB129"/>
	<stop  offset="0.1239" style="stop-color:#FDA52F"/>
	<stop  offset="0.35" style="stop-color:#F88441"/>
	<stop  offset="0.6528" style="stop-color:#F04F5D"/>
	<stop  offset="1" style="stop-color:#E60A81"/>
</linearGradient>
<circle class="st0" cx="237" cy="237" r="237"/>
<linearGradient id="SVGID_2_" gradientUnits="userSpaceOnUse" x1="69.4" y1="204.3625" x2="473.9125" y2="204.3625" gradientTransform="matrix(1 0 0 -1 0 476)">
	<stop  offset="0" style="stop-color:#FFB129"/>
	<stop  offset="0.1239" style="stop-color:#FDA52F"/>
	<stop  offset="0.35" style="stop-color:#F88441"/>
	<stop  offset="0.6528" style="stop-color:#F04F5D"/>
	<stop  offset="1" style="stop-color:#E60A81"/>
</linearGradient>
<path class="st1" d="M404.5,69.4c92.5,92.5,92.6,242.6,0,335.1C312,497,161.9,497,69.4,404.5L404.5,69.4z"/>
<linearGradient id="SVGID_3_" gradientUnits="userSpaceOnUse" x1="116.6" y1="180.4" x2="472.9" y2="180.4" gradientTransform="matrix(1 0 0 -1 0 476)">
	<stop  offset="0" style="stop-color:#EE9829"/>
	<stop  offset="0.1411" style="stop-color:#EC8C31"/>
	<stop  offset="0.3984" style="stop-color:#E56B45"/>
	<stop  offset="0.7401" style="stop-color:#DB3665"/>
	<stop  offset="1" style="stop-color:#D20A81"/>
</linearGradient>
<path class="st2" d="M472.9,258.9L342.7,128.8l-8.6,8.6l-17-17l-15.7,15.7l-14.3-14.3l-55.9,55.9l-59.5-59.5L166,124l4.2,4.2
	l-2.6,2.6l-12.2-12.2l-6,6l5.6,5.6l-5.4,5.4L139,125.3l-12.6,12.6l11.5,11.5l-11.5,11.5l4,4l-4,4l9.6,9.6l-19.4,19.4L164,245
	l-9.9,9.9l31.2,31.2L127.4,344l129,129C370.9,463.8,462.4,373.1,472.9,258.9z"/>
<g>
	<path class="st3" d="M358.7,205c-23,0-46.1,0-69.1,0c27,44.4-3.9,102.9-59.6,97.4c-34-3.3-65.2-39.9-51.4-81.5
		c0.9-2.6,2.7-5.5,4.1-8.3c1.3-2.6,3.6-5.7,3-7.7c-22.6,0-68.5,0-68.5,0v114c2.3,22.3,19.8,39.8,42.5,41.9h78.5h78.5
		c22.7-2.3,39.7-21.3,41.9-41.3C358.7,319.5,358.7,224.7,358.7,205z"/>
	<path class="st3" d="M231.7,193.7c-9.3,1.1-14.3,3.1-18.9,5.9c-10.6,6.4-20.6,18.3-22.4,34.2c-3.6,32.2,20,54.3,47.2,54.3
		c21.7,0,48.1-15.5,47.8-47.8C285.2,211,261.7,190.1,231.7,193.7z M272.5,249.8c-4,16.3-22,28.6-40.7,26
		c-17.9-2.5-37.1-24.7-26.6-49.6c3.9-9.1,12.6-19.4,30.7-20.7C258.1,204,278.8,223.9,272.5,249.8z"/>
	<path class="st3" d="M345.1,131.8c-6.5-6.5-17.2-12.5-28.9-13.6h-78.3h-0.2h-56.1v61.4h-10v-61.4h-6.2v61.4h-10v-60.8
		c-2.2,0.4-4.4,1-6.5,1.7v59.1h-10v-54.3c-3.2,2-6,4.2-8.3,6.5c-13.4,13.4-14.4,36.3-13.6,65.5h75c3-0.7,6.7-4.5,9.4-6.5
		c10.1-7.4,23.1-11.5,36.3-11.6h0.4c13.2,0.1,26.2,4.2,36.3,11.6c2.8,2,6.4,5.8,9.4,6.5h75C359,167.8,358.5,145.1,345.1,131.8z
		 M334.8,171.6c0,3.4-2.8,6.2-6.2,6.2h-25.9c-3.4,0-6.2-2.8-6.2-6.2v-25.9c0-3.4,2.8-6.2,6.2-6.2h25.9c3.4,0,6.2,2.8,6.2,6.2V171.6z
		"/>
</g>
</svg>
